<svg width="22" height="22" viewBox="0 0 22 22" fill="none" xmlns="http://www.w3.org/2000/svg">
<path d="M11.0201 18.2833C7.01276 18.2833 3.75684 15.0273 3.75684 11.0201C3.75684 7.01276 7.01276 3.75684 11.0201 3.75684C15.0273 3.75684 18.2833 7.01276 18.2833 11.0201C18.2833 15.0273 15.0273 18.2833 11.0201 18.2833ZM11.0201 5.25957C7.84428 5.25957 5.25957 7.84428 5.25957 11.0201C5.25957 14.1958 7.84428 16.7805 11.0201 16.7805C14.1958 16.7805 16.7805 14.1958 16.7805 11.0201C16.7805 7.84428 14.1958 5.25957 11.0201 5.25957Z" fill="white"/>
<path d="M11.0201 22C10.4691 22 10.0182 21.5893 10.0182 21.0383V20.9581C10.0182 20.4071 10.4691 19.9563 11.0201 19.9563C11.5711 19.9563 12.0219 20.4071 12.0219 20.9581C12.0219 21.5091 11.5711 22 11.0201 22ZM18.1731 19.1749C17.9126 19.1749 17.6621 19.0747 17.4618 18.8844L17.3315 18.7541C16.9408 18.3634 16.9408 17.7323 17.3315 17.3416C17.7223 16.9508 18.3534 16.9508 18.7441 17.3416L18.8744 17.4718C19.2651 17.8625 19.2651 18.4937 18.8744 18.8844C18.684 19.0747 18.4335 19.1749 18.1731 19.1749ZM3.86704 19.1749C3.60656 19.1749 3.35611 19.0747 3.15574 18.8844C2.76503 18.4937 2.76503 17.8625 3.15574 17.4718L3.28598 17.3416C3.67669 16.9508 4.30784 16.9508 4.69855 17.3416C5.08926 17.7323 5.08926 18.3634 4.69855 18.7541L4.56831 18.8844C4.37797 19.0747 4.11749 19.1749 3.86704 19.1749ZM21.0383 12.0219H20.9581C20.4071 12.0219 19.9563 11.5711 19.9563 11.0201C19.9563 10.4691 20.4071 10.0182 20.9581 10.0182C21.5091 10.0182 22 10.4691 22 11.0201C22 11.5711 21.5893 12.0219 21.0383 12.0219ZM1.08197 12.0219H1.00182C0.45082 12.0219 0 11.5711 0 11.0201C0 10.4691 0.45082 10.0182 1.00182 10.0182C1.55283 10.0182 2.04372 10.4691 2.04372 11.0201C2.04372 11.5711 1.63297 12.0219 1.08197 12.0219ZM18.0428 4.9991C17.7824 4.9991 17.5319 4.89892 17.3315 4.70857C16.9408 4.31786 16.9408 3.68671 17.3315 3.296L17.4618 3.16576C17.8525 2.77505 18.4836 2.77505 18.8744 3.16576C19.2651 3.55647 19.2651 4.18762 18.8744 4.57833L18.7441 4.70857C18.5538 4.89892 18.3033 4.9991 18.0428 4.9991ZM3.99727 4.9991C3.7368 4.9991 3.48635 4.89892 3.28598 4.70857L3.15574 4.56831C2.76503 4.1776 2.76503 3.54645 3.15574 3.15574C3.54645 2.76503 4.1776 2.76503 4.56831 3.15574L4.69855 3.28598C5.08926 3.67669 5.08926 4.30784 4.69855 4.69855C4.5082 4.89892 4.24773 4.9991 3.99727 4.9991ZM11.0201 2.04372C10.4691 2.04372 10.0182 1.63297 10.0182 1.08197V1.00182C10.0182 0.45082 10.4691 0 11.0201 0C11.5711 0 12.0219 0.45082 12.0219 1.00182C12.0219 1.55283 11.5711 2.04372 11.0201 2.04372Z" fill="white"/>
</svg>
