<svg width="28" height="43" viewBox="0 0 28 43" fill="none" xmlns="http://www.w3.org/2000/svg">
<path d="M13.9999 0H6.99993C3.1321 0 0 3.1321 0 6.99993C0 10.8678 3.1321 13.9999 6.99993 13.9999H13.9999V0Z" fill="#F24E1E"/>
<path d="M13.9999 14.0251H6.99993C3.1321 14.0251 0 17.1572 0 21.025C0 24.8928 3.1321 28.0249 6.99993 28.0249H13.9999V14.0251Z" fill="#A259FF"/>
<path d="M13.9999 28.017H6.99993C3.1321 28.017 0 31.1491 0 35.0169C0 38.8847 3.1321 42.0168 6.99993 42.0168C10.8678 42.0168 13.9999 38.8847 13.9999 35.0169V28.017Z" fill="#0ACF83"/>
<path d="M14.0002 0H21.0001C24.8679 0 28 3.1321 28 6.99993C28 10.8678 24.8679 13.9999 21.0001 13.9999H14.0002V0Z" fill="#FF7262"/>
<path d="M21.0001 14.0251C24.8679 14.0251 28 17.1572 28 21.025C28 24.8928 24.8679 28.0249 21.0001 28.0249C17.1323 28.0249 14.0002 24.8928 14.0002 21.025C14.0002 17.1572 17.1323 14.0251 21.0001 14.0251Z" fill="#1ABCFE"/>
</svg>
